<svg xmlns="http://www.w3.org/2000/svg" version="1.1" xmlns:xlink="http://www.w3.org/1999/xlink" xmlns:svgjs="http://svgjs.dev/svgjs" width="1500" height="1500" viewBox="0 0 1500 1500"><rect width="1500" height="1500" fill="#aaaaaa"></rect><g transform="matrix(0.6666666666666666,0,0,0.6666666666666666,249.39436519522388,620.5476237244058)"><svg viewBox="0 0 396 103" data-background-color="#aaaaaa" preserveAspectRatio="xMidYMid meet" height="390" width="1500" xmlns="http://www.w3.org/2000/svg" xmlns:xlink="http://www.w3.org/1999/xlink"><g id="tight-bounds" transform="matrix(1,0,0,1,0.24008861730862918,-0.21662445068508873)"><svg viewBox="0 0 395.52 103.43347945873184" height="103.43347945873184" width="395.52"><g><svg viewBox="0 0 395.52 103.43347945873184" height="103.43347945873184" width="395.52"><g><svg viewBox="0 0 395.52 103.43347945873184" height="103.43347945873184" width="395.52"><g id="textblocktransform"><svg viewBox="0 0 395.52 103.43347945873184" height="103.43347945873184" width="395.52" id="textblock"><g><svg viewBox="0 0 395.52 103.43347945873184" height="103.43347945873184" width="395.52"><path d="M394.594 22.185C392.735 11.448 387.435 8.463 387.435 8.463 371.165-2.595 350.86-0.212 332.619 1.377 300.414 1.442 268.339 3.804 236.208 5.071 168.767 5.264 100.749 2.086 33.643 9.924 27.339 12.329-6.54 10.396 1.121 23.559 3.129 29.034 10.456 35.111 10.232 40.136 11.236 41.016 12.631 38.998 13.226 40.265 15.309 43.679 18.711 42.068 21.501 44.087 17.614 49.476 20.403 53.964 23.062 58.667 18.377 59.891 12.371 59.311 9.675 63.369 9.396 66.311 7.89 65.753 6.235 65.624 5.026 65.538 2.59 65.86 2.999 66.783 4.394 69.94-1.594 71.765 2.162 74.857-0.422 78.207 3.948 81.106 3.353 84.735 3.278 85.465 3.687 86.087 4.338 86.259 7.22 87.182 3.018 88.986 3.464 90.94 33.029 104.296 65.104 95.063 95.394 101.204 103.259 96.91 97.346 102.729 100.489 101.827 102.943 100.775 104.728 105.134 107.499 102.664 107.927 101.956 107.276 100.281 108.8 100.603 109.6 100.775 110.307 100.732 110.418 99.744 110.586 98.262 109.117 99.186 108.726 98.413 112.947 94.505 111.906 103.802 115.866 103.416 115.68 102.278 114.528 100.646 116.889 100.861 119.232 99.229 119.306 97.876 121.389 101.548 121.463 102.342 121.835 102.9 122.43 103.287 128.938 99.293 135.409 104.704 142.233 102.9 146.417 100.925 150.433 103.974 154.672 103.223 156.16 102.621 157.666 101.548 159.098 103.351 176.632 103.738 195.319 102.127 211.943 103.416 256.364 101.011 303.836 104.404 350.674 101.226 361.719 100.002 373.192 98.262 383.958 96.867 383.958 96.867 392.679 93.044 392.679 75.866S394.538 60.835 394.817 47.157C395.096 33.479 396.398 32.921 394.538 22.185Z" opacity="1" fill="#082f49" data-fill-palette-color="tertiary"></path><g transform="matrix(1,0,0,1,55.76832,26.230666666666668)"><svg width="283.98335999999995" viewBox="3.85 -43.25 313.646666666665 56.3" height="50.9721461253985" data-palette-color="#ffffff"><path d="M30.9-35.7Q33.4-35.7 33.4-33.05L33.4-33.05 33.35-16.45Q33.35-9.9 32.95-6.5 32.55-3.1 31.7-1.83 30.85-0.55 29.2-0.55L29.2-0.55Q27.65-0.55 26.03-1.98 24.4-3.4 22.38-6.33 20.35-9.25 16.65-15.15L16.65-15.15Q10.65-24.75 8.85-27.35L8.85-27.35 8.9-16.9 8.95-2.55Q8.95-1.7 8.25-1.07 7.55-0.45 6.45-0.45L6.45-0.45Q5.4-0.45 4.67-1.07 3.95-1.7 3.95-2.55L3.95-2.55 3.95-17.05 3.9-23.8Q3.85-26 3.85-30.1L3.85-30.1Q3.85-32.95 4.45-34.15 5.05-35.35 6.75-35.35L6.75-35.35Q8.25-35.35 9.65-34.15 11.05-32.95 12.63-30.68 14.2-28.4 17.35-23.35L17.35-23.35 19.05-20.6Q22.95-14.35 24.83-11.53 26.7-8.7 28.05-6.9L28.05-6.9Q28.35-12 28.35-16.45L28.35-16.45 28.35-33.5Q28.35-34.5 29-35.1 29.65-35.7 30.9-35.7L30.9-35.7ZM45.65-27.55Q44.1-27.55 43.1-28.58 42.1-29.6 42.1-31.15L42.1-31.15Q42.1-32.65 43.12-33.65 44.15-34.65 45.75-34.65L45.75-34.65Q47.35-34.65 48.32-33.7 49.3-32.75 49.3-31.2L49.3-31.2Q49.3-29.65 48.27-28.6 47.25-27.55 45.65-27.55L45.65-27.55ZM44.95-0.3Q43.8-0.3 43.1-0.85 42.4-1.4 42.4-2.4L42.4-2.4 42.9-22.7Q42.9-23.7 43.6-24.28 44.3-24.85 45.4-24.85L45.4-24.85Q46.5-24.85 47.22-24.25 47.95-23.65 47.95-22.65L47.95-22.65 47.45-2.35Q47.4-1.35 46.72-0.83 46.05-0.3 44.95-0.3L44.95-0.3ZM68.7 0.3Q65.05 0.3 62.07-1.18 59.1-2.65 57.37-5.58 55.65-8.5 55.65-12.7L55.65-12.7Q55.65-16.6 57.25-19.5 58.85-22.4 61.8-23.95 64.75-25.5 68.7-25.5L68.7-25.5Q71.25-25.5 73.15-24.8 75.05-24.1 76.25-23L76.25-23Q76.55-35.05 77-41.3L77-41.3Q77.09-42.15 77.77-42.7 78.45-43.25 79.45-43.25L79.45-43.25Q80.59-43.25 81.32-42.65 82.05-42.05 82-41.1L82-41.1Q81.65-37.8 81.37-29 81.09-20.2 81.09-13.3L81.09-13.3Q81.09-6.65 81.4-5.45L81.4-5.45Q81.95-3.4 82.9-2.9L82.9-2.9Q83.09-2.8 83.09-2.2L83.09-2.2Q83.09-1.3 82.27-0.55 81.45 0.2 80.45 0.2L80.45 0.2Q79.59 0.2 79.09-0.2L79.09-0.2Q77.34-1.2 76.75-3.7L76.75-3.7Q75.5-1.85 73.4-0.78 71.3 0.3 68.7 0.3L68.7 0.3ZM68.65-3.85Q70.55-3.85 72.27-4.75 74-5.65 75.05-7.13 76.09-8.6 76.09-10.25L76.09-10.25Q76.09-12.55 76.15-13.85L76.15-13.85 76.2-17.85Q75.45-19.15 73.37-20.28 71.3-21.4 68.84-21.4L68.84-21.4Q65.05-21.4 62.82-19.05 60.6-16.7 60.6-12.55L60.6-12.55Q60.6-9.7 61.77-7.73 62.95-5.75 64.77-4.8 66.59-3.85 68.65-3.85L68.65-3.85ZM99.84 0.1Q93.94 0.1 90.22-3.03 86.49-6.15 86.49-12.4L86.49-12.4Q86.49-16.35 88.07-19.4 89.64-22.45 92.57-24.15 95.49-25.85 99.49-25.85L99.49-25.85Q103.39-25.85 106.47-24.2 109.54-22.55 111.27-19.48 112.99-16.4 112.99-12.3L112.99-12.3Q112.99-6.3 109.39-3.1 105.79 0.1 99.84 0.1L99.84 0.1ZM99.74-3.85Q103.44-3.85 105.74-6.03 108.04-8.2 108.04-12.4L108.04-12.4Q108.04-15.1 107.02-17.28 105.99-19.45 104.07-20.68 102.14-21.9 99.64-21.9L99.64-21.9Q95.94-21.9 93.72-19.33 91.49-16.75 91.49-12.45L91.49-12.45Q91.49-8.05 93.84-5.95 96.19-3.85 99.74-3.85L99.74-3.85ZM146.69-18.1Q147.69-18.1 148.37-17.55 149.04-17 149.04-15.8L149.04-15.8Q149.04-14.65 148.37-14.1 147.69-13.55 146.69-13.55L146.69-13.55 146.04-13.55 146.34-2.35Q146.39-1.25 145.74-0.6 145.09 0.05 143.89 0.05L143.89 0.05Q142.74 0.05 142.07-0.55 141.39-1.15 141.34-2.2L141.34-2.2 140.99-13.65 125.79-13.9 124.79-1.5Q124.59 0.3 122.29 0.3L122.29 0.3Q119.59 0.3 119.79-1.85L119.79-1.85 120.74-14 119.99-14Q119.09-14 118.44-14.6 117.79-15.2 117.79-16.25L117.79-16.25Q117.79-17.35 118.44-17.93 119.09-18.5 120.14-18.5L120.14-18.5 121.09-18.5 122.34-33.95Q122.39-34.95 123.12-35.52 123.84-36.1 124.94-36.1L124.94-36.1Q126.24-36.1 126.84-35.4 127.44-34.7 127.34-33.6L127.34-33.6 126.14-18.4 140.84-18.2 140.39-33.7Q140.39-34.8 141.04-35.45 141.69-36.1 142.89-36.1L142.89-36.1Q144.04-36.1 144.72-35.48 145.39-34.85 145.44-33.9L145.44-33.9 145.89-18.1 146.69-18.1ZM175.34-6.3Q175.34-5.1 175.59-4.33 175.84-3.55 176.19-2.95 176.54-2.35 176.54-2.2L176.54-2.2Q176.54-1.4 175.86-0.8 175.19-0.2 174.34-0.2L174.34-0.2Q173.34-0.2 172.39-1.48 171.44-2.75 171.44-4L171.44-4 171.44-4.3Q170.44-2.2 168.49-1.07 166.54 0.05 163.79 0.05L163.79 0.05Q159.54 0.05 157.31-2.93 155.09-5.9 155.09-11.2L155.09-11.2 155.09-23.35Q155.09-24.2 155.76-24.7 156.44-25.2 157.49-25.2L157.49-25.2Q158.59-25.2 159.31-24.7 160.04-24.2 160.04-23.35L160.04-23.35 160.04-11.15Q160.04-3.9 164.39-3.9L164.39-3.9Q167.44-3.9 168.81-6.68 170.19-9.45 170.19-14.7L170.19-14.7 170.19-23.35Q170.19-24.35 170.84-24.93 171.49-25.5 172.59-25.5L172.59-25.5Q173.74-25.5 174.44-24.9 175.14-24.3 175.14-23.35L175.14-23.35 175.34-6.3ZM195.94-25.5Q200.19-25.5 202.41-22.48 204.64-19.45 204.64-13.45L204.64-13.45 204.64-1.9Q204.64-0.95 203.99-0.48 203.34 0 202.24 0L202.24 0Q201.14 0 200.39-0.45 199.64-0.9 199.64-1.8L199.64-1.8 199.69-13.5Q199.69-17.65 198.76-19.53 197.84-21.4 195.49-21.4L195.49-21.4Q190.99-21.4 189.64-14.2L189.64-14.2Q189.19-12 189.19-8.9L189.19-8.9 189.24-1.8Q189.24-0.9 188.59-0.43 187.94 0.05 186.84 0.05L186.84 0.05Q185.64 0.05 184.96-0.48 184.29-1 184.29-1.8L184.29-1.8Q184.29-6.8 184.09-13.4L184.09-13.4Q183.99-17.3 183.99-18.8L183.99-18.8Q183.94-19.9 183.66-20.53 183.39-21.15 182.64-22.4L182.64-22.4Q182.44-22.9 182.44-23.25L182.44-23.25Q182.44-24 183.29-24.65 184.14-25.3 184.94-25.3L184.94-25.3Q185.79-25.3 186.59-24.2L186.59-24.2Q187.94-22.25 187.94-20.65L187.94-20.65 187.94-20.05Q188.84-22.4 190.76-23.95 192.69-25.5 195.94-25.5L195.94-25.5ZM233.93-8.55L234.13-7.15Q234.53-4.5 234.71-3 234.88-1.5 234.88-0.1L234.88-0.1Q234.88 3.6 233.36 6.45 231.83 9.3 229.06 10.9 226.28 12.5 222.63 12.5L222.63 12.5Q219.83 12.5 217.48 11.4 215.13 10.3 213.73 8.4 212.33 6.5 212.33 4.3L212.33 4.3Q212.33 2.4 214.68 2.4L214.68 2.4Q216.18 2.4 216.48 3.85L216.48 3.85Q216.98 6.15 218.56 7.28 220.13 8.4 222.53 8.4L222.53 8.4Q226.13 8.4 228.06 6.2 229.98 4 229.98-0.2L229.98-0.2Q229.98-1.55 229.73-3.2L229.73-3.2Q228.58-1.8 226.61-0.93 224.63-0.05 222.08-0.05L222.08-0.05Q218.48-0.05 215.71-1.73 212.93-3.4 211.43-6.25 209.93-9.1 209.93-12.45L209.93-12.45Q209.93-15.9 211.41-18.85 212.88-21.8 215.61-23.53 218.33-25.25 221.83-25.25L221.83-25.25Q225.73-25.25 227.98-23.3L227.98-23.3Q228.18-23.9 228.88-25.5L228.88-25.5Q229.38-26.5 230.53-26.5L230.53-26.5Q231.48-26.5 232.36-25.98 233.23-25.45 233.28-24.65L233.28-24.65Q233.28-24.3 233.23-24.15L233.23-24.15Q232.38-21.45 232.23-20.75L232.23-20.75 233.93-8.55ZM222.33-4.25Q224.53-4.25 226.61-5.45 228.68-6.65 229.08-8.05L229.08-8.05Q228.78-10.9 227.93-15.9L227.93-15.9Q227.88-16.4 227.53-18.45L227.53-18.45Q227.08-19.4 225.56-20.25 224.03-21.1 222.13-21.1L222.13-21.1Q220.03-21.1 218.38-19.98 216.73-18.85 215.81-16.88 214.88-14.9 214.88-12.5L214.88-12.5Q214.88-9.05 216.81-6.65 218.73-4.25 222.33-4.25L222.33-4.25ZM263.73-4Q264.48-3.9 264.91-3.5 265.33-3.1 265.33-2.15L265.33-2.15Q265.33-1.25 264.88-0.65 264.43-0.05 263.63-0.05L263.63-0.05Q261.58-0.05 260.56-0.65 259.53-1.25 258.68-2.9L258.68-2.9Q256.58 0.5 250.88 0.5L250.88 0.5Q245.08 0.5 242.33-3.03 239.58-6.55 239.58-11.8L239.58-11.8Q239.58-15.3 240.98-18.25 242.38-21.2 245.08-22.95 247.78-24.7 251.38-24.7L251.38-24.7Q253.68-24.7 255.46-23.8 257.23-22.9 258.13-21.35L258.13-21.35 258.28-22.6Q258.48-24.4 260.43-24.4L260.43-24.4Q261.73-24.4 262.28-23.83 262.83-23.25 262.73-22.4L262.73-22.4Q262.23-18.65 262.13-16.75L262.13-16.75Q261.98-14.95 261.98-12.05L261.98-12.05 261.98-8.75Q261.98-6.15 262.26-5.15 262.53-4.15 263.73-4L263.73-4ZM257.08-8.75Q257.13-11 257.13-14.9L257.13-14.9Q257.13-16.95 256.26-18.25 255.38-19.55 254.11-20.15 252.83-20.75 251.53-20.75L251.53-20.75Q249.28-20.75 247.71-19.43 246.13-18.1 245.36-16.05 244.58-14 244.58-11.8L244.58-11.8Q244.58-8.45 246.16-5.98 247.73-3.5 251.08-3.5L251.08-3.5Q253.73-3.5 255.38-4.85 257.03-6.2 257.08-8.75L257.08-8.75ZM283.78-25.8Q286.98-25.8 288.88-23.75 290.78-21.7 290.78-18.65L290.78-18.65Q290.78-15.75 288.98-14.1 287.18-12.45 284.33-12.45L284.33-12.45Q283.08-12.45 282.55-12.83 282.03-13.2 282.03-14.15L282.03-14.15Q282.03-15 282.4-15.38 282.78-15.75 283.53-15.8L283.53-15.8Q286.68-16.05 286.68-18.75L286.68-18.75Q286.68-20.05 285.95-20.95 285.23-21.85 283.73-21.85L283.73-21.85Q281.98-21.85 280.6-20.2 279.23-18.55 278.4-16.2 277.58-13.85 277.43-11.75L277.43-11.75Q277.08-8 277.08-3.35L277.08-3.35Q277.08-1.1 276.58-0.35 276.08 0.4 274.68 0.4L274.68 0.4Q273.33 0.4 272.75-0.18 272.18-0.75 272.18-2.1L272.18-2.1Q272.13-3.05 272.13-11.15L272.13-11.15Q272.13-15.2 271.58-20.5L271.58-20.5 271.28-24.35Q271.23-25.3 271.85-25.85 272.48-26.4 273.63-26.4L273.63-26.4Q275.63-26.4 275.73-24.6L275.73-24.6 276.08-19.5Q276.98-22.35 278.98-24.08 280.98-25.8 283.78-25.8L283.78-25.8ZM304.38 13.05Q303.28 13.05 302.53 12.38 301.78 11.7 301.78 10.75L301.78 10.75Q301.78 10.3 301.98 9.9L301.98 9.9Q304.28 3.95 306.38-1.95L306.38-1.95Q304.23-3.4 302-6.98 299.78-10.55 298.03-14.88 296.28-19.2 295.43-22.75L295.43-22.75Q295.33-23.15 295.33-23.5L295.33-23.5Q295.33-24.35 296-24.9 296.68-25.45 297.78-25.45L297.78-25.45Q298.73-25.45 299.15-25.05 299.58-24.65 299.78-23.8L299.78-23.8Q304.08-9.4 308.03-6.75L308.03-6.75Q309.78-12.75 312.68-24.05L312.68-24.05Q312.93-24.9 313.38-25.25 313.83-25.6 314.73-25.6L314.73-25.6Q315.93-25.6 316.65-25.08 317.38-24.55 317.48-23.7L317.48-23.7Q317.53-23.5 317.43-23.15L317.43-23.15Q315.93-17.15 314.73-12.85 313.53-8.55 312.03-4.1L312.03-4.1Q310.88-0.65 309.2 4.15 307.53 8.95 306.53 11.45L306.53 11.45Q306.23 12.25 305.75 12.65 305.28 13.05 304.38 13.05L304.38 13.05Z" opacity="1" transform="matrix(1,0,0,1,0,0)" fill="#ffffff" class="wordmark-text-0" data-fill-palette-color="quaternary" id="text-0"></path></svg></g></svg></g></svg></g></svg></g><g></g></svg></g><defs></defs></svg><rect width="395.52" height="103.43347945873184" fill="none" stroke="none" visibility="hidden"></rect></g></svg></g></svg>